Coordinates
version=1
nRows=7
nColumns=33
inDegrees=yes

Units are S.I. units (second, meters, Newtons, ...)
Angles are in degrees.

endheader
time	ground_thorax_rot_x	ground_thorax_rot_y	ground_thorax_rot_z	ground_thorax_tx	ground_thorax_ty	ground_thorax_tz	clav_prot_r	clav_elev_r	scapula_abduction_r	scapula_elevation_r	scapula_upward_rot_r	scapula_winging_r	shoulder_elv_r	plane_of_elev_r	axial_rot_r	elbow_flexion_r	pro_sup_r	wrist_flex_r	wrist_dev_r	clav_prot_l	clav_elev_l	scapula_abduction_l	scapula_elevation_l	scapula_upward_rot_l	scapula_winging_l	shoulder_elv_l	plane_of_elev_l	axial_rot_l	elbow_flexion_l	pro_sup_l	wrist_flex_l	wrist_dev_l
      4.41000000	    -25.39374668	    -35.60435451	     51.70102285	    -77.33010395	    837.04711383	    -47.05698096	     23.88715126	    -45.00000000	     44.77409168	    -45.00000000	    -21.61437420	   2401.98096098	  -1534.74211472	    144.27243734	   -179.99999979	   3590.44871419	    420.52214759	     30.24668265	     16.92082069	     -0.70031834	     34.48473751	    -35.63601291	    -45.00000000	    -45.00000000	   2973.99683774	  -6040.63274134	     26.39173005	     42.66470088	   1788.31549700	   -323.72332376	     15.39407660	    -19.83943424
      4.42000000	    -25.18435084	    -35.75821032	     52.05351439	    -76.30966213	    836.70283286	    -47.01100514	     23.83858010	    -45.00000000	     44.81497015	    -45.00000000	    -21.48787460	   2402.05404784	  -1534.69253105	    144.36423084	   -179.99999979	   3590.41778322	    420.49919215	     30.21912536	     16.99681864	     -0.63625539	     34.57654054	    -35.56216654	    -45.00000000	    -45.00000000	   2973.92549733	  -6040.57914706	     26.35872417	     42.74963995	   1788.31048414	   -323.70406707	     15.41542249	    -19.80205149
      4.43000000	    -25.12354600	    -35.82095418	     52.18245822	    -75.27990935	    836.35552137	    -46.96365005	     23.90532867	    -45.00000000	     44.82284689	    -45.00000000	    -21.47980911	   2401.93379532	  -1534.85335716	    144.18478495	   -179.99999979	   3590.35997201	    420.49132533	     30.02857991	     16.99855635	     -0.74229818	     34.40190320	    -35.63684200	    -45.00000000	    -45.00000000	   2973.97407258	  -6040.69240290	     26.41305469	     42.83935203	   1788.35283456	   -323.65560820	     15.41495628	    -19.66558573
      4.44000000	    -24.71884396	    -36.07836193	     52.57847346	    -74.23776656	    836.00231646	    -46.91524053	     23.72545584	    -45.00000000	     44.99284977	    -45.00000000	    -21.29861700	   2402.20303129	  -1534.67348959	    144.32972842	   -179.99999979	   3590.35573399	    420.44836523	     30.14010409	     17.12750402	     -0.47479167	     34.71799904	    -35.38714127	    -45.00000000	    -45.00000000	   2973.76661767	  -6040.58706862	     26.26183730	     42.86207251	   1788.09800976	   -323.59692516	     15.46930079	    -19.64360967
      4.45000000	    -24.94754179	    -35.96290493	     52.47552138	    -73.17416877	    835.63940070	    -46.86676463	     24.02457834	    -45.00000000	     44.87087484	    -45.00000000	    -21.49289693	   2401.86172283	  -1535.12081075	    144.09413275	   -179.99999979	   3590.37245871	    420.43076056	     29.86620884	     17.06323879	     -0.93268068	     34.24830799	    -35.60352104	    -45.00000000	    -45.00000000	   2973.92043405	  -6040.73116861	     26.56866533	     43.04074020	   1788.20958871	   -323.53551855	     15.46864870	    -19.46864621
      4.46000000	    -24.78351062	    -36.14857952	     52.74556962	    -72.09579301	    835.26897608	    -46.82013399	     23.83644360	    -45.00000000	     44.88868675	    -45.00000000	    -21.13072705	   2402.02263045	  -1535.00046544	    144.25849045	   -179.99999979	   3590.39011027	    420.36827856	     29.94947436	     17.16217393	     -0.67576920	     34.50558845	    -35.56762536	    -45.00000000	    -45.00000000	   2973.88139692	  -6040.66936700	     26.48985175	     43.11960083	   1788.16775758	   -323.50462883	     15.49495383	    -19.50691317
      4.47000000	    -24.53488980	    -36.31573329	     53.21584174	    -70.99302848	    834.88905195	    -46.77654275	     23.80771746	    -45.00000000	     44.89334721	    -45.00000000	    -21.05782287	   2401.94313734	  -1535.00807853	    144.19925242	   -179.99999979	   3590.27423436	    420.38096963	     29.71756550	     17.20992709	     -0.60135659	     34.42111866	    -35.51094402	    -45.00000000	    -45.00000000	   2973.75356621	  -6040.59717411	     26.38687757	     43.20249384	   1788.19206658	   -323.44150670	     15.42457962	    -19.29748302
